<svg width="1421" height="318" viewBox="0 0 1421 318" fill="none" xmlns="http://www.w3.org/2000/svg">
<path d="M82.2 152C89.6667 153.067 96.2 154.467 101.8 156.2C107.4 157.933 112.2 159.933 116.2 162.2C120.333 164.467 123.733 166.867 126.4 169.4C129.067 171.933 131.267 174.467 133 177C137 182.867 139.067 189.267 139.2 196.2C139.2 202.2 138.467 207.533 137 212.2C135.533 216.867 133.533 220.933 131 224.4C128.6 227.733 125.8 230.6 122.6 233C119.533 235.267 116.4 237.2 113.2 238.8C105.6 242.4 96.9333 244.533 87.2 245.2C79.7333 245.733 73.1333 245.733 67.4 245.2C61.6667 244.667 56.6667 243.8 52.4 242.6C48.2667 241.267 44.7333 239.733 41.8 238C39 236.267 36.7333 234.4 35 232.4C30.6 227.867 28.2667 222.533 28 216.4C28 212 28.6 208.267 29.8 205.2C31 202.133 32.6667 199.6 34.8 197.6C36.9333 195.467 39.3333 193.8 42 192.6C44.8 191.267 47.6 190.267 50.4 189.6C57.0667 188.133 64.6667 187.933 73.2 189C67.3333 187.667 62.2667 186 58 184C53.8667 181.867 50.3333 179.533 47.4 177C44.4667 174.333 42.0667 171.6 40.2 168.8C38.4667 166 37.0667 163.267 36 160.6C33.6 154.2 32.8 147.4 33.6 140.2C34.2667 135.267 35.4 130.933 37 127.2C38.7333 123.467 40.7333 120.267 43 117.6C45.2667 114.933 47.6667 112.733 50.2 111C52.8667 109.133 55.5333 107.667 58.2 106.6C64.4667 104.067 71.3333 102.8 78.8 102.8C91.2 102.267 101 102.933 108.2 104.8C115.533 106.533 121 108.867 124.6 111.8C128.333 114.733 130.6 118 131.4 121.6C132.333 125.067 132.667 128.267 132.4 131.2C132 134.533 131 137.4 129.4 139.8C127.8 142.067 125.8 144 123.4 145.6C121 147.2 118.267 148.533 115.2 149.6C112.267 150.533 109.267 151.2 106.2 151.6C99 152.8 91 152.933 82.2 152ZM285.8 198C286.067 205.867 285.333 213 283.6 219.4C282.8 222.2 281.733 225 280.4 227.8C279.2 230.467 277.533 233 275.4 235.4C273.267 237.667 270.733 239.667 267.8 241.4C265 243.133 261.6 244.333 257.6 245C257.6 245 256.8 245.067 255.2 245.2C253.6 245.333 251.533 245.267 249 245C246.6 244.733 243.933 244.2 241 243.4C238.2 242.467 235.533 241 233 239C230.467 236.867 228.267 234.067 226.4 230.6C224.667 227.133 223.667 222.733 223.4 217.4C222.867 212.2 222.333 207.533 221.8 203.4C221.133 199.933 220.4 196.733 219.6 193.8C218.8 190.733 217.733 189.2 216.4 189.2C216.8 194.133 217 198.4 217 202C217.133 205.6 217.133 208.667 217 211.2C216.867 214.133 216.733 216.667 216.6 218.8C215.933 223.867 214.4 228.333 212 232.2C210 235.667 207 238.8 203 241.6C199.133 244.267 193.733 245.6 186.8 245.6C179.867 245.6 174.4 244.2 170.4 241.4C166.4 238.467 163.333 235.267 161.2 231.8C158.8 227.667 157.2 223 156.4 217.8C155.333 209.8 154.533 200.933 154 191.2C153.6 182.8 153.467 173 153.6 161.8C153.867 150.467 154.8 138.067 156.4 124.6C156.933 118.6 158.4 113.267 160.8 108.6C161.733 106.6 162.933 104.667 164.4 102.8C165.867 100.933 167.667 99.2667 169.8 97.8C171.933 96.3333 174.4 95.2 177.2 94.4C180 93.4667 183.2 93 186.8 93C192.933 93.1333 198.133 94.5333 202.4 97.2C206.667 99.8667 210.067 103.667 212.6 108.6C215.267 113.533 217.133 119.467 218.2 126.4C219.267 133.333 219.6 141.133 219.2 149.8C230.667 144.2 241.067 141.933 250.4 143C254.4 143.4 258.333 144.6 262.2 146.6C266.2 148.6 269.8 151.733 273 156C276.2 160.133 278.933 165.6 281.2 172.4C283.467 179.2 285 187.733 285.8 198ZM361.689 222.8C360.622 228.8 358.556 233.4 355.489 236.6C352.556 239.8 349.422 242.133 346.089 243.6C342.222 245.2 338.022 246.067 333.489 246.2C327.756 246.467 323.022 245.733 319.289 244C315.689 242.133 312.756 240.067 310.489 237.8C307.956 235.267 306.022 232.2 304.689 228.6C302.022 221.267 300.422 213.8 299.889 206.2C299.489 198.467 299.622 191.4 300.289 185C300.956 177.667 302.156 170.4 303.889 163.2C305.622 157.067 308.022 152.4 311.089 149.2C314.289 146 317.422 143.667 320.489 142.2C324.089 140.6 327.956 139.733 332.089 139.6C338.356 139.333 343.356 140.4 347.089 142.8C350.956 145.2 354.022 147.933 356.289 151C358.822 154.6 360.689 158.733 361.889 163.4C362.822 167.8 363.556 172.933 364.089 178.8C364.489 183.867 364.556 190.067 364.289 197.4C364.156 204.733 363.289 213.2 361.689 222.8ZM509.823 198C510.09 205.867 509.357 213 507.623 219.4C506.823 222.2 505.757 225 504.423 227.8C503.223 230.467 501.557 233 499.423 235.4C497.29 237.667 494.757 239.667 491.823 241.4C489.023 243.133 485.623 244.333 481.623 245C481.623 245 480.823 245.067 479.223 245.2C477.623 245.333 475.557 245.267 473.023 245C470.623 244.733 467.957 244.2 465.023 243.4C462.223 242.467 459.557 241 457.023 239C454.49 236.867 452.29 234.067 450.423 230.6C448.69 227.133 447.69 222.733 447.423 217.4C446.89 212.2 446.357 207.533 445.823 203.4C445.157 199.933 444.423 196.733 443.623 193.8C442.823 190.733 441.757 189.2 440.423 189.2C440.823 194.133 441.023 198.4 441.023 202C441.157 205.6 441.157 208.667 441.023 211.2C440.89 214.133 440.757 216.667 440.623 218.8C439.957 223.733 438.423 228.133 436.023 232C434.023 235.333 431.023 238.4 427.023 241.2C423.157 244 417.757 245.467 410.823 245.6C407.49 245.6 404.49 245.2 401.823 244.4C399.29 243.733 397.023 242.733 395.023 241.4C393.023 240.067 391.223 238.6 389.623 237C388.157 235.267 386.89 233.533 385.823 231.8C383.29 227.667 381.49 223 380.423 217.8C379.49 214.2 378.757 210.067 378.223 205.4C377.69 201.4 377.357 196.6 377.223 191C377.09 185.4 377.357 179 378.023 171.8C378.69 166.2 380.223 161.133 382.623 156.6C383.557 154.733 384.757 152.867 386.223 151C387.69 149.133 389.423 147.467 391.423 146C393.423 144.4 395.69 143.133 398.223 142.2C400.89 141.133 403.89 140.467 407.223 140.2C413.09 139.8 417.89 140.067 421.623 141C425.49 141.933 428.623 143.2 431.023 144.8C433.423 146.267 435.223 147.933 436.423 149.8C437.757 151.533 438.89 153.2 439.823 154.8C451.823 148.267 462.757 145.2 472.623 145.6C476.757 145.733 480.89 146.667 485.023 148.4C489.157 150 492.89 152.8 496.223 156.8C499.69 160.667 502.623 165.933 505.023 172.6C507.423 179.267 509.023 187.733 509.823 198ZM634.388 143C638.521 144.867 641.788 148 644.188 152.4C645.121 154.267 645.921 156.533 646.588 159.2C647.254 161.733 647.588 164.733 647.588 168.2C647.588 171.667 647.121 175.667 646.188 180.2C645.388 184.6 643.988 189.6 641.988 195.2C638.121 205.6 634.188 215.067 630.188 223.6C626.321 232 622.721 239.2 619.388 245.2C615.521 252.267 611.788 258.533 608.188 264C604.454 270.533 600.188 276 595.388 280.4C593.388 282.267 591.121 283.933 588.588 285.4C586.188 287 583.521 288.133 580.588 288.8C577.788 289.6 574.788 289.867 571.588 289.6C568.521 289.333 565.254 288.333 561.788 286.6C557.388 284.467 554.188 281.733 552.188 278.4C550.188 275.067 548.988 271.4 548.588 267.4C548.188 263.533 548.388 259.467 549.188 255.2C550.121 250.933 551.188 246.933 552.388 243.2C553.721 239.467 555.054 236.133 556.388 233.2C557.854 230.133 558.988 227.8 559.788 226.2C558.988 225.4 558.121 224.667 557.188 224C556.388 223.2 555.654 222.467 554.988 221.8C554.188 221.133 553.454 220.467 552.788 219.8C548.388 216.467 544.454 213.067 540.988 209.6C537.521 206.133 534.654 202.933 532.388 200C529.721 196.533 527.388 193.267 525.388 190.2C522.321 185.267 520.388 180.2 519.588 175C519.188 172.867 519.054 170.6 519.188 168.2C519.321 165.667 519.788 163.133 520.588 160.6C521.388 158.067 522.654 155.533 524.388 153C526.254 150.333 528.721 147.8 531.788 145.4C536.054 143 540.521 141.667 545.188 141.4C547.188 141.267 549.321 141.4 551.588 141.8C553.854 142.2 556.188 143 558.588 144.2C561.121 145.4 563.654 147.067 566.188 149.2C568.854 151.2 571.521 153.867 574.188 157.2C576.454 160 578.521 162.8 580.388 165.6C582.254 168.267 584.121 170.933 585.988 173.6C587.454 170.933 589.588 167.267 592.388 162.6C595.188 157.933 598.588 153.667 602.588 149.8C606.588 145.933 611.254 143.133 616.588 141.4C621.921 139.533 627.854 140.067 634.388 143Z" fill="white"/>
<path d="M799.775 202.8C802.442 204.8 805.042 207.067 807.575 209.6C810.108 212 812.042 214.733 813.375 217.8C814.708 220.867 815.175 224.333 814.775 228.2C814.508 231.933 812.775 236.2 809.575 241C805.842 246.6 801.708 250.2 797.175 251.8C792.775 253.533 788.508 254 784.375 253.2C780.242 252.533 776.508 251.067 773.175 248.8C769.842 246.533 767.508 244.2 766.175 241.8C762.708 243.267 759.375 244.333 756.175 245C753.108 245.8 750.442 246.4 748.175 246.8C745.375 247.333 742.842 247.6 740.575 247.6C731.375 247.6 723.242 246.6 716.175 244.6C709.108 242.733 702.975 240.2 697.775 237C692.575 233.8 688.175 230.2 684.575 226.2C681.108 222.067 678.242 217.867 675.975 213.6C670.642 203.6 667.575 192.2 666.775 179.4C666.775 169 667.842 160 669.975 152.4C672.108 144.667 674.842 138.067 678.175 132.6C681.642 127 685.575 122.467 689.975 119C694.375 115.4 698.908 112.533 703.575 110.4C714.375 105.467 726.708 103.267 740.575 103.8C748.708 103.8 755.908 104.8 762.175 106.8C768.442 108.8 773.842 111.4 778.375 114.6C783.042 117.8 786.975 121.467 790.175 125.6C793.375 129.6 795.975 133.733 797.975 138C802.775 148 805.508 159.333 806.175 172C806.175 179.333 805.575 185.333 804.375 190C803.175 194.667 801.642 198.933 799.775 202.8ZM740.575 170C738.308 170 736.308 170.867 734.575 172.6C732.975 174.333 732.308 176.267 732.575 178.4C732.842 181.2 733.642 183.133 734.975 184.2C736.442 185.267 738.308 185.8 740.575 185.8C742.842 185.8 744.708 185.133 746.175 183.8C747.642 182.467 748.375 180.667 748.375 178.4C748.375 176.267 747.708 174.333 746.375 172.6C745.042 170.867 743.108 170 740.575 170ZM862.977 141.2C866.843 141.733 870.31 143 873.377 145C876.043 146.733 878.443 149.333 880.577 152.8C882.843 156.267 884.11 161.067 884.377 167.2C884.377 169.467 884.377 172 884.377 174.8C884.51 177.6 884.71 180.2 884.977 182.6C885.377 185 885.977 187.067 886.777 188.8C887.71 190.4 889.043 191.2 890.777 191.2C893.843 191.2 895.577 189.333 895.977 185.6C896.51 181.733 896.843 175.6 896.977 167.2C896.977 160.667 898.177 155.6 900.577 152C902.977 148.4 905.577 145.8 908.377 144.2C911.71 142.333 915.51 141.267 919.777 141C926.443 140.733 931.643 141.733 935.377 144C939.243 146.133 942.243 148.6 944.377 151.4C946.777 154.733 948.443 158.533 949.377 162.8C950.843 169.867 951.31 176.6 950.777 183C950.377 189.4 949.643 195.133 948.577 200.2C947.243 206.067 945.51 211.6 943.377 216.8C940.843 222.667 937.31 227.867 932.777 232.4C930.777 234.4 928.51 236.333 925.977 238.2C923.443 240.067 920.51 241.733 917.177 243.2C913.843 244.533 910.177 245.6 906.177 246.4C902.177 247.2 897.71 247.533 892.777 247.4C882.377 247.133 873.777 245.933 866.977 243.8C860.31 241.533 854.977 239.133 850.977 236.6C846.31 233.667 842.777 230.333 840.377 226.6C836.243 220.6 833.51 213.933 832.177 206.6C830.843 199.267 830.243 192.4 830.377 186C830.377 178.533 831.11 171 832.577 163.4C834.043 156.867 836.443 152 839.777 148.8C843.11 145.6 846.51 143.467 849.977 142.4C853.977 141.067 858.31 140.667 862.977 141.2ZM1029.71 202.6C1033.58 205.667 1037.65 207.6 1041.91 208.4C1046.18 209.067 1050.11 209.667 1053.71 210.2C1057.45 210.733 1060.58 211.733 1063.11 213.2C1065.78 214.667 1067.45 217.733 1068.11 222.4C1068.25 225.067 1067.91 227.667 1067.11 230.2C1066.31 232.467 1064.91 234.8 1062.91 237.2C1061.05 239.467 1058.05 241.4 1053.91 243C1048.05 244.867 1041.71 246.067 1034.91 246.6C1029.05 247.133 1022.38 247 1014.91 246.2C1007.45 245.533 999.647 243.533 991.514 240.2C986.181 237.8 981.447 234.4 977.314 230C975.581 228.133 973.847 226 972.114 223.6C970.514 221.067 969.047 218.267 967.714 215.2C966.514 212 965.514 208.467 964.714 204.6C964.047 200.733 963.847 196.467 964.114 191.8C964.514 184.6 965.914 177.733 968.314 171.2C969.381 168.4 970.714 165.6 972.314 162.8C973.914 159.867 975.847 157.067 978.114 154.4C980.514 151.733 983.247 149.267 986.314 147C989.514 144.733 993.181 142.867 997.314 141.4C1004.11 139.4 1011.05 138.333 1018.11 138.2C1021.05 138.2 1024.18 138.4 1027.51 138.8C1030.98 139.067 1034.38 139.733 1037.71 140.8C1041.18 141.733 1044.65 143.133 1048.11 145C1051.58 146.867 1054.91 149.2 1058.11 152C1060.25 154.133 1062.11 156.533 1063.71 159.2C1065.18 161.6 1066.45 164.533 1067.51 168C1068.58 171.333 1069.18 175.333 1069.31 180C1069.31 185.2 1068.11 189.467 1065.71 192.8C1063.45 196.133 1060.38 198.667 1056.51 200.4C1052.78 202.133 1048.51 203.2 1043.71 203.6C1039.05 203.867 1034.38 203.533 1029.71 202.6ZM1024.51 177.2C1022.25 177.2 1020.25 178.067 1018.51 179.8C1016.91 181.533 1016.25 183.467 1016.51 185.6C1016.78 188.4 1017.58 190.333 1018.91 191.4C1020.38 192.467 1022.25 193 1024.51 193C1026.78 193 1028.65 192.333 1030.11 191C1031.58 189.667 1032.31 187.867 1032.31 185.6C1032.31 183.467 1031.65 181.533 1030.31 179.8C1028.98 178.067 1027.05 177.2 1024.51 177.2ZM1137.91 180.4C1143.64 181.2 1148.71 182.267 1153.11 183.6C1157.51 184.933 1161.24 186.467 1164.31 188.2C1167.51 189.933 1170.11 191.8 1172.11 193.8C1174.24 195.667 1175.91 197.533 1177.11 199.4C1180.04 203.8 1181.51 208.667 1181.51 214C1181.51 218.4 1180.84 222.333 1179.51 225.8C1178.31 229.133 1176.64 232.067 1174.51 234.6C1172.51 237 1170.17 239.067 1167.51 240.8C1164.97 242.533 1162.37 244 1159.71 245.2C1153.31 247.867 1146.04 249.533 1137.91 250.2C1130.44 250.467 1123.91 250.333 1118.31 249.8C1112.84 249.267 1108.11 248.467 1104.11 247.4C1100.11 246.333 1096.71 245.067 1093.91 243.6C1091.24 242.133 1089.11 240.6 1087.51 239C1083.64 235.267 1081.71 230.933 1081.71 226C1081.57 222.667 1081.97 219.733 1082.91 217.2C1083.97 214.667 1085.37 212.467 1087.11 210.6C1088.97 208.733 1091.04 207.2 1093.31 206C1095.57 204.667 1097.91 203.6 1100.31 202.8C1105.91 200.933 1112.37 199.867 1119.71 199.6C1110.64 197.467 1103.77 194.733 1099.11 191.4C1094.44 188.067 1091.11 184.867 1089.11 181.8C1086.71 178.2 1085.51 174.4 1085.51 170.4C1085.64 166.133 1086.51 162.4 1088.11 159.2C1089.71 156 1091.71 153.267 1094.11 151C1096.64 148.6 1099.37 146.667 1102.31 145.2C1105.37 143.6 1108.51 142.267 1111.71 141.2C1119.04 138.8 1127.37 137.6 1136.71 137.6C1146.04 137.867 1153.57 138.667 1159.31 140C1165.17 141.2 1169.71 142.933 1172.91 145.2C1176.11 147.333 1178.24 149.867 1179.31 152.8C1180.37 155.6 1180.84 158.6 1180.71 161.8C1180.57 164.867 1179.84 167.467 1178.51 169.6C1177.17 171.733 1175.51 173.533 1173.51 175C1171.51 176.333 1169.24 177.467 1166.71 178.4C1164.17 179.2 1161.57 179.8 1158.91 180.2C1152.64 181.133 1145.64 181.2 1137.91 180.4ZM1225.42 127.4C1224.48 120.867 1224.75 115 1226.22 109.8C1226.88 107.667 1227.82 105.533 1229.02 103.4C1230.22 101.267 1231.88 99.4 1234.02 97.8C1236.15 96.2 1238.75 94.9333 1241.82 94C1244.88 92.9333 1248.55 92.4 1252.82 92.4C1256.95 92.4 1260.55 92.9333 1263.62 94C1266.68 94.9333 1269.22 96.2667 1271.22 98C1273.35 99.7333 1275.08 101.667 1276.42 103.8C1277.75 105.933 1278.82 108.067 1279.62 110.2C1281.35 115.4 1282.02 121.267 1281.62 127.8C1288.68 127.4 1295.02 128 1300.62 129.6C1303.02 130.267 1305.35 131.267 1307.62 132.6C1309.88 133.8 1311.88 135.4 1313.62 137.4C1315.48 139.267 1316.95 141.6 1318.02 144.4C1319.08 147.2 1319.62 150.533 1319.62 154.4C1319.62 158 1319.08 161.133 1318.02 163.8C1317.08 166.333 1315.75 168.533 1314.02 170.4C1312.28 172.267 1310.35 173.8 1308.22 175C1306.08 176.2 1303.95 177.133 1301.82 177.8C1296.48 179.4 1290.55 180.067 1284.02 179.8C1285.35 192.333 1285.35 203.467 1284.02 213.2C1283.48 217.333 1282.62 221.4 1281.42 225.4C1280.35 229.4 1278.82 232.933 1276.82 236C1274.82 239.067 1272.28 241.6 1269.22 243.6C1266.15 245.467 1262.48 246.4 1258.22 246.4C1249.68 246.4 1243.22 244.6 1238.82 241C1234.55 237.267 1231.55 232.267 1229.82 226C1228.22 219.733 1227.55 212.533 1227.82 204.4C1228.08 196.267 1228.55 187.667 1229.22 178.6C1221.62 179.667 1214.88 179.6 1209.02 178.4C1206.48 177.867 1204.02 177.067 1201.62 176C1199.22 174.933 1197.08 173.467 1195.22 171.6C1193.35 169.733 1191.82 167.4 1190.62 164.6C1189.55 161.8 1189.02 158.4 1189.02 154.4C1189.02 148.8 1190.22 144.267 1192.62 140.8C1195.15 137.333 1198.28 134.6 1202.02 132.6C1205.75 130.6 1209.68 129.267 1213.82 128.6C1218.08 127.8 1221.95 127.4 1225.42 127.4Z" fill="url(#paint0_linear_23_10)"/>
<g filter="url(#filter0_dd_23_10)">
<path d="M799.775 202.8C802.442 204.8 805.042 207.067 807.575 209.6C810.108 212 812.042 214.733 813.375 217.8C814.708 220.867 815.175 224.333 814.775 228.2C814.508 231.933 812.775 236.2 809.575 241C805.842 246.6 801.708 250.2 797.175 251.8C792.775 253.533 788.508 254 784.375 253.2C780.242 252.533 776.508 251.067 773.175 248.8C769.842 246.533 767.508 244.2 766.175 241.8C762.708 243.267 759.375 244.333 756.175 245C753.108 245.8 750.442 246.4 748.175 246.8C745.375 247.333 742.842 247.6 740.575 247.6C731.375 247.6 723.242 246.6 716.175 244.6C709.108 242.733 702.975 240.2 697.775 237C692.575 233.8 688.175 230.2 684.575 226.2C681.108 222.067 678.242 217.867 675.975 213.6C670.642 203.6 667.575 192.2 666.775 179.4C666.775 169 667.842 160 669.975 152.4C672.108 144.667 674.842 138.067 678.175 132.6C681.642 127 685.575 122.467 689.975 119C694.375 115.4 698.908 112.533 703.575 110.4C714.375 105.467 726.708 103.267 740.575 103.8C748.708 103.8 755.908 104.8 762.175 106.8C768.442 108.8 773.842 111.4 778.375 114.6C783.042 117.8 786.975 121.467 790.175 125.6C793.375 129.6 795.975 133.733 797.975 138C802.775 148 805.508 159.333 806.175 172C806.175 179.333 805.575 185.333 804.375 190C803.175 194.667 801.642 198.933 799.775 202.8ZM740.575 170C738.308 170 736.308 170.867 734.575 172.6C732.975 174.333 732.308 176.267 732.575 178.4C732.842 181.2 733.642 183.133 734.975 184.2C736.442 185.267 738.308 185.8 740.575 185.8C742.842 185.8 744.708 185.133 746.175 183.8C747.642 182.467 748.375 180.667 748.375 178.4C748.375 176.267 747.708 174.333 746.375 172.6C745.042 170.867 743.108 170 740.575 170ZM862.977 141.2C866.843 141.733 870.31 143 873.377 145C876.043 146.733 878.443 149.333 880.577 152.8C882.843 156.267 884.11 161.067 884.377 167.2C884.377 169.467 884.377 172 884.377 174.8C884.51 177.6 884.71 180.2 884.977 182.6C885.377 185 885.977 187.067 886.777 188.8C887.71 190.4 889.043 191.2 890.777 191.2C893.843 191.2 895.577 189.333 895.977 185.6C896.51 181.733 896.843 175.6 896.977 167.2C896.977 160.667 898.177 155.6 900.577 152C902.977 148.4 905.577 145.8 908.377 144.2C911.71 142.333 915.51 141.267 919.777 141C926.443 140.733 931.643 141.733 935.377 144C939.243 146.133 942.243 148.6 944.377 151.4C946.777 154.733 948.443 158.533 949.377 162.8C950.843 169.867 951.31 176.6 950.777 183C950.377 189.4 949.643 195.133 948.577 200.2C947.243 206.067 945.51 211.6 943.377 216.8C940.843 222.667 937.31 227.867 932.777 232.4C930.777 234.4 928.51 236.333 925.977 238.2C923.443 240.067 920.51 241.733 917.177 243.2C913.843 244.533 910.177 245.6 906.177 246.4C902.177 247.2 897.71 247.533 892.777 247.4C882.377 247.133 873.777 245.933 866.977 243.8C860.31 241.533 854.977 239.133 850.977 236.6C846.31 233.667 842.777 230.333 840.377 226.6C836.243 220.6 833.51 213.933 832.177 206.6C830.843 199.267 830.243 192.4 830.377 186C830.377 178.533 831.11 171 832.577 163.4C834.043 156.867 836.443 152 839.777 148.8C843.11 145.6 846.51 143.467 849.977 142.4C853.977 141.067 858.31 140.667 862.977 141.2ZM1029.71 202.6C1033.58 205.667 1037.65 207.6 1041.91 208.4C1046.18 209.067 1050.11 209.667 1053.71 210.2C1057.45 210.733 1060.58 211.733 1063.11 213.2C1065.78 214.667 1067.45 217.733 1068.11 222.4C1068.25 225.067 1067.91 227.667 1067.11 230.2C1066.31 232.467 1064.91 234.8 1062.91 237.2C1061.05 239.467 1058.05 241.4 1053.91 243C1048.05 244.867 1041.71 246.067 1034.91 246.6C1029.05 247.133 1022.38 247 1014.91 246.2C1007.45 245.533 999.647 243.533 991.514 240.2C986.181 237.8 981.447 234.4 977.314 230C975.581 228.133 973.847 226 972.114 223.6C970.514 221.067 969.047 218.267 967.714 215.2C966.514 212 965.514 208.467 964.714 204.6C964.047 200.733 963.847 196.467 964.114 191.8C964.514 184.6 965.914 177.733 968.314 171.2C969.381 168.4 970.714 165.6 972.314 162.8C973.914 159.867 975.847 157.067 978.114 154.4C980.514 151.733 983.247 149.267 986.314 147C989.514 144.733 993.181 142.867 997.314 141.4C1004.11 139.4 1011.05 138.333 1018.11 138.2C1021.05 138.2 1024.18 138.4 1027.51 138.8C1030.98 139.067 1034.38 139.733 1037.71 140.8C1041.18 141.733 1044.65 143.133 1048.11 145C1051.58 146.867 1054.91 149.2 1058.11 152C1060.25 154.133 1062.11 156.533 1063.71 159.2C1065.18 161.6 1066.45 164.533 1067.51 168C1068.58 171.333 1069.18 175.333 1069.31 180C1069.31 185.2 1068.11 189.467 1065.71 192.8C1063.45 196.133 1060.38 198.667 1056.51 200.4C1052.78 202.133 1048.51 203.2 1043.71 203.6C1039.05 203.867 1034.38 203.533 1029.71 202.6ZM1024.51 177.2C1022.25 177.2 1020.25 178.067 1018.51 179.8C1016.91 181.533 1016.25 183.467 1016.51 185.6C1016.78 188.4 1017.58 190.333 1018.91 191.4C1020.38 192.467 1022.25 193 1024.51 193C1026.78 193 1028.65 192.333 1030.11 191C1031.58 189.667 1032.31 187.867 1032.31 185.6C1032.31 183.467 1031.65 181.533 1030.31 179.8C1028.98 178.067 1027.05 177.2 1024.51 177.2ZM1137.91 180.4C1143.64 181.2 1148.71 182.267 1153.11 183.6C1157.51 184.933 1161.24 186.467 1164.31 188.2C1167.51 189.933 1170.11 191.8 1172.11 193.8C1174.24 195.667 1175.91 197.533 1177.11 199.4C1180.04 203.8 1181.51 208.667 1181.51 214C1181.51 218.4 1180.84 222.333 1179.51 225.8C1178.31 229.133 1176.64 232.067 1174.51 234.6C1172.51 237 1170.17 239.067 1167.51 240.8C1164.97 242.533 1162.37 244 1159.71 245.2C1153.31 247.867 1146.04 249.533 1137.91 250.2C1130.44 250.467 1123.91 250.333 1118.31 249.8C1112.84 249.267 1108.11 248.467 1104.11 247.4C1100.11 246.333 1096.71 245.067 1093.91 243.6C1091.24 242.133 1089.11 240.6 1087.51 239C1083.64 235.267 1081.71 230.933 1081.71 226C1081.57 222.667 1081.97 219.733 1082.91 217.2C1083.97 214.667 1085.37 212.467 1087.11 210.6C1088.97 208.733 1091.04 207.2 1093.31 206C1095.57 204.667 1097.91 203.6 1100.31 202.8C1105.91 200.933 1112.37 199.867 1119.71 199.6C1110.64 197.467 1103.77 194.733 1099.11 191.4C1094.44 188.067 1091.11 184.867 1089.11 181.8C1086.71 178.2 1085.51 174.4 1085.51 170.4C1085.64 166.133 1086.51 162.4 1088.11 159.2C1089.71 156 1091.71 153.267 1094.11 151C1096.64 148.6 1099.37 146.667 1102.31 145.2C1105.37 143.6 1108.51 142.267 1111.71 141.2C1119.04 138.8 1127.37 137.6 1136.71 137.6C1146.04 137.867 1153.57 138.667 1159.31 140C1165.17 141.2 1169.71 142.933 1172.91 145.2C1176.11 147.333 1178.24 149.867 1179.31 152.8C1180.37 155.6 1180.84 158.6 1180.71 161.8C1180.57 164.867 1179.84 167.467 1178.51 169.6C1177.17 171.733 1175.51 173.533 1173.51 175C1171.51 176.333 1169.24 177.467 1166.71 178.4C1164.17 179.2 1161.57 179.8 1158.91 180.2C1152.64 181.133 1145.64 181.2 1137.91 180.4ZM1225.42 127.4C1224.48 120.867 1224.75 115 1226.22 109.8C1226.88 107.667 1227.82 105.533 1229.02 103.4C1230.22 101.267 1231.88 99.4 1234.02 97.8C1236.15 96.2 1238.75 94.9333 1241.82 94C1244.88 92.9333 1248.55 92.4 1252.82 92.4C1256.95 92.4 1260.55 92.9333 1263.62 94C1266.68 94.9333 1269.22 96.2667 1271.22 98C1273.35 99.7333 1275.08 101.667 1276.42 103.8C1277.75 105.933 1278.82 108.067 1279.62 110.2C1281.35 115.4 1282.02 121.267 1281.62 127.8C1288.68 127.4 1295.02 128 1300.62 129.6C1303.02 130.267 1305.35 131.267 1307.62 132.6C1309.88 133.8 1311.88 135.4 1313.62 137.4C1315.48 139.267 1316.95 141.6 1318.02 144.4C1319.08 147.2 1319.62 150.533 1319.62 154.4C1319.62 158 1319.08 161.133 1318.02 163.8C1317.08 166.333 1315.75 168.533 1314.02 170.4C1312.28 172.267 1310.35 173.8 1308.22 175C1306.08 176.2 1303.95 177.133 1301.82 177.8C1296.48 179.4 1290.55 180.067 1284.02 179.8C1285.35 192.333 1285.35 203.467 1284.02 213.2C1283.48 217.333 1282.62 221.4 1281.42 225.4C1280.35 229.4 1278.82 232.933 1276.82 236C1274.82 239.067 1272.28 241.6 1269.22 243.6C1266.15 245.467 1262.48 246.4 1258.22 246.4C1249.68 246.4 1243.22 244.6 1238.82 241C1234.55 237.267 1231.55 232.267 1229.82 226C1228.22 219.733 1227.55 212.533 1227.82 204.4C1228.08 196.267 1228.55 187.667 1229.22 178.6C1221.62 179.667 1214.88 179.6 1209.02 178.4C1206.48 177.867 1204.02 177.067 1201.62 176C1199.22 174.933 1197.08 173.467 1195.22 171.6C1193.35 169.733 1191.82 167.4 1190.62 164.6C1189.55 161.8 1189.02 158.4 1189.02 154.4C1189.02 148.8 1190.22 144.267 1192.62 140.8C1195.15 137.333 1198.28 134.6 1202.02 132.6C1205.75 130.6 1209.68 129.267 1213.82 128.6C1218.08 127.8 1221.95 127.4 1225.42 127.4Z" fill="url(#paint1_linear_23_10)"/>
</g>
<g filter="url(#filter1_dd_23_10)">
<path d="M344.45 69.6367L381 77.7778L344.604 85.8841L331 128L317.395 85.8841L281 77.7778L317.55 69.6367L331 28L344.45 69.6367Z" fill="url(#paint2_radial_23_10)"/>
</g>
<defs>
<filter id="filter0_dd_23_10" x="0" y="64.4" width="1347.62" height="253.6" filterUnits="userSpaceOnUse" color-interpolation-filters="sRGB">
<feFlood flood-opacity="0" result="BackgroundImageFix"/>
<feColorMatrix in="SourceAlpha" type="matrix" values="0 0 0 0 0 0 0 0 0 0 0 0 0 0 0 0 0 0 127 0" result="hardAlpha"/>
<feMorphology radius="4" operator="dilate" in="SourceAlpha" result="effect1_dropShadow_23_10"/>
<feOffset/>
<feGaussianBlur stdDeviation="12"/>
<feColorMatrix type="matrix" values="0 0 0 0 1 0 0 0 0 0.8 0 0 0 0 0.15 0 0 0 0.35 0"/>
<feBlend mode="normal" in2="BackgroundImageFix" result="effect1_dropShadow_23_10"/>
<feColorMatrix in="SourceAlpha" type="matrix" values="0 0 0 0 0 0 0 0 0 0 0 0 0 0 0 0 0 0 127 0" result="hardAlpha"/>
<feOffset dy="6"/>
<feGaussianBlur stdDeviation="8"/>
<feColorMatrix type="matrix" values="0 0 0 0 0.6 0 0 0 0 0.4 0 0 0 0 0 0 0 0 0.15 0"/>
<feBlend mode="normal" in2="effect1_dropShadow_23_10" result="effect2_dropShadow_23_10"/>
<feBlend mode="normal" in="SourceGraphic" in2="effect2_dropShadow_23_10" result="shape"/>
</filter>
<filter id="filter1_dd_23_10" x="253" y="0" width="156" height="156" filterUnits="userSpaceOnUse" color-interpolation-filters="sRGB">
<feFlood flood-opacity="0" result="BackgroundImageFix"/>
<feColorMatrix in="SourceAlpha" type="matrix" values="0 0 0 0 0 0 0 0 0 0 0 0 0 0 0 0 0 0 127 0" result="hardAlpha"/>
<feMorphology radius="4" operator="dilate" in="SourceAlpha" result="effect1_dropShadow_23_10"/>
<feOffset/>
<feGaussianBlur stdDeviation="12"/>
<feColorMatrix type="matrix" values="0 0 0 0 1 0 0 0 0 0.8 0 0 0 0 0.15 0 0 0 0.35 0"/>
<feBlend mode="normal" in2="BackgroundImageFix" result="effect1_dropShadow_23_10"/>
<feColorMatrix in="SourceAlpha" type="matrix" values="0 0 0 0 0 0 0 0 0 0 0 0 0 0 0 0 0 0 127 0" result="hardAlpha"/>
<feOffset dy="6"/>
<feGaussianBlur stdDeviation="8"/>
<feColorMatrix type="matrix" values="0 0 0 0 0.6 0 0 0 0 0.4 0 0 0 0 0 0 0 0 0.15 0"/>
<feBlend mode="normal" in2="effect1_dropShadow_23_10" result="effect2_dropShadow_23_10"/>
<feBlend mode="normal" in="SourceGraphic" in2="effect2_dropShadow_23_10" result="shape"/>
</filter>
<linearGradient id="paint0_linear_23_10" x1="721" y1="53" x2="721" y2="286" gradientUnits="userSpaceOnUse">
<stop stop-color="#A36B05"/>
<stop offset="0.32" stop-color="#EDBA1F"/>
<stop offset="0.5" stop-color="#FFF7CC"/>
<stop offset="0.68" stop-color="#FFE066"/>
<stop offset="1" stop-color="#A36B05"/>
</linearGradient>
<linearGradient id="paint1_linear_23_10" x1="721" y1="53" x2="721" y2="286" gradientUnits="userSpaceOnUse">
<stop stop-color="#A36B05"/>
<stop offset="0.32" stop-color="#EDBA1F"/>
<stop offset="0.5" stop-color="#FFF7CC"/>
<stop offset="0.68" stop-color="#FFE066"/>
<stop offset="1" stop-color="#A36B05"/>
</linearGradient>
<radialGradient id="paint2_radial_23_10" cx="0" cy="0" r="1" gradientUnits="userSpaceOnUse" gradientTransform="translate(331 78) scale(50)">
<stop stop-color="#FFF7CC"/>
<stop offset="0.25" stop-color="#FFE066"/>
<stop offset="0.6" stop-color="#EDBA1F"/>
<stop offset="1" stop-color="#BF8C0D"/>
</radialGradient>
</defs>
</svg>
